<svg xmlns="http://www.w3.org/2000/svg" version="1.1" xmlns:xlink="http://www.w3.org/1999/xlink" xmlns:svgjs="http://svgjs.dev/svgjs" viewBox="0 0 800 800"><defs><filter id="bbburst-blur-1" x="-100%" y="-100%" width="400%" height="400%"><feGaussianBlur in="SourceGraphic" stdDeviation="1"></feGaussianBlur></filter><filter id="bbburst-blur-2" x="-100%" y="-100%" width="400%" height="400%"><feGaussianBlur in="SourceGraphic" stdDeviation="2"></feGaussianBlur></filter><filter id="bbburst-blur-3" x="-100%" y="-100%" width="400%" height="400%"><feGaussianBlur in="SourceGraphic" stdDeviation="4"></feGaussianBlur></filter><filter id="bbburst-blur-4" x="-100%" y="-100%" width="400%" height="400%"><feGaussianBlur in="SourceGraphic" stdDeviation="12"></feGaussianBlur></filter><symbol id="bbburst-shape-1" viewBox="0 0 194 167"><path d="m97 0 96.129 166.5H.871L97 0Z"></path></symbol><symbol id="bbburst-shape-5" viewBox="0 0 145 145"><circle cx="72.5" cy="72.5" r="72.5"></circle></symbol><symbol id="bbburst-shape-9" viewBox="0 0 182 172"><path d="M13.5809 69.845 91 13.5967l77.419 56.2483-29.571 91.012H43.1524L13.5809 69.845Z" stroke-width="22"></path></symbol><symbol id="bbburst-shape-10" viewBox="0 0 145 145"><circle cx="72.5" cy="72.5" r="61.5" fill="none" stroke-width="22"></circle></symbol><symbol id="bbburst-shape-11" viewBox="0 0 194 167"><path d="M10.398 161 97 11l86.603 150H10.397Z" stroke-width="11"></path></symbol><symbol id="bbburst-shape-13" viewBox="0 0 159 159"><path stroke-width="22" d="M11 11h137v137H11z"></path></symbol></defs><use xlink:href="#bbburst-shape-10" width="32.504037712096526" opacity="0.4179934410406837" transform="matrix(0.8174789199831636,-0.5759585188042281,0.5759585188042281,0.8174789199831636,-87.94314852406185,176.83230828844142)" fill="none" stroke="#ff5c58" filter="url(#bbburst-blur-2)"></use><use xlink:href="#bbburst-shape-11" width="17.916541298314243" opacity="0.8133437541407106" transform="matrix(0.7959428398445246,-0.605371783039343,0.605371783039343,0.7959428398445246,175.1858672499456,6.551351677715331)" fill="none" stroke="#ffa6d5"></use><use xlink:href="#bbburst-shape-1" width="21.134767167201836" opacity="0.5442511028239307" transform="matrix(0.7666570087537125,-0.6420568751511117,0.6420568751511117,0.7666570087537125,282.34469268325785,-42.607416598677446)" fill="#ffa6d5" filter="url(#bbburst-blur-2)"></use><use xlink:href="#bbburst-shape-9" width="11.794998315021452" opacity="0.8829872821198469" transform="matrix(0.9469170082319922,0.3214781167062126,-0.3214781167062126,0.9469170082319922,508.53466395464625,69.88255409234392)" fill="none" stroke="#00a19d"></use><use xlink:href="#bbburst-shape-11" width="11.76540801729745" opacity="0.9517597730327032" transform="matrix(0.842114558344299,-0.539298684056049,0.539298684056049,0.842114558344299,173.24747270216324,87.06222385390305)" fill="none" stroke="#00a19d"></use><use xlink:href="#bbburst-shape-11" width="43.177478827800314" opacity="0.148470212154712" transform="matrix(1.0753844483087314,-0.63721918390435,0.63721918390435,1.0753844483087314,-168.30167862733788,-267.6430274189189)" fill="none" stroke="#ffa6d5" filter="url(#bbburst-blur-3)"></use><use xlink:href="#bbburst-shape-10" width="14.912340309665506" opacity="0.8950357171691331" transform="matrix(0.9946495550430324,0.10330664379747152,-0.10330664379747152,0.9946495550430324,459.2150006846559,41.25121559645754)" fill="none" stroke="#ffa6d5"></use><use xlink:href="#bbburst-shape-10" width="14.074023515175439" opacity="0.8052946050547857" transform="matrix(0.9067830616949984,-0.4215975320409794,0.4215975320409794,0.9067830616949984,206.65764458549836,125.93381514542068)" fill="none" stroke="#00a19d"></use><use xlink:href="#bbburst-shape-10" width="20.514923921430096" opacity="0.6630358713010205" transform="matrix(0.852965701432281,0.5219669646444466,-0.5219669646444466,0.852965701432281,743.6608268003101,102.09274797581577)" fill="none" stroke="#ffa6d5" filter="url(#bbburst-blur-1)"></use><use xlink:href="#bbburst-shape-10" width="41.678787689537735" opacity="0.19725512904134945" transform="matrix(1.2470571445388152,0.08572326553915513,-0.08572326553915513,1.2470571445388152,157.1287259173643,159.01190709318894)" fill="none" stroke="#2c2891" filter="url(#bbburst-blur-3)"></use><use xlink:href="#bbburst-shape-9" width="32.99358500617129" opacity="0.17825072470944103" transform="matrix(0.963330221556239,0.7965518716545755,-0.7965518716545755,0.963330221556239,617.6005857040329,-358.50008362563494)" fill="none" stroke="#ffbd9b" filter="url(#bbburst-blur-3)"></use><use xlink:href="#bbburst-shape-13" width="24.94663178077091" opacity="0.694952086744759" transform="matrix(0.8592317861722265,-0.5115864908608174,0.5115864908608174,0.8592317861722265,76.03085675166332,146.6277745122037)" fill="none" stroke="#00a19d" filter="url(#bbburst-blur-1)"></use><use xlink:href="#bbburst-shape-9" width="25.441721845534786" opacity="0.6965117333964059" transform="matrix(0.9021357658468947,0.43145226848382295,-0.43145226848382295,0.9021357658468947,621.6653863377096,-88.94207825247224)" fill="none" stroke="#2c2891" filter="url(#bbburst-blur-1)"></use><use xlink:href="#bbburst-shape-9" width="25.295101397097277" opacity="0.5058339332055444" transform="matrix(0.9957310613661838,-0.09230196872533634,0.09230196872533634,0.9957310613661838,128.15238305840074,7.7482453774475175)" fill="none" stroke="#2c2891" filter="url(#bbburst-blur-2)"></use><use xlink:href="#bbburst-shape-11" width="16.615942085997535" opacity="0.8757441844008875" transform="matrix(0.9006893646998679,0.4344636559213536,-0.4344636559213536,0.9006893646998679,611.0576123442936,2.2795898371941234)" fill="none" stroke="#ffbd9b"></use><use xlink:href="#bbburst-shape-11" width="20.84652210677309" opacity="0.712043278028879" transform="matrix(0.8654682956249803,-0.5009637005492431,0.5009637005492431,0.8654682956249803,140.9249257099588,-60.937409018854964)" fill="none" stroke="#2c2891" filter="url(#bbburst-blur-1)"></use><use xlink:href="#bbburst-shape-9" width="17.454972657411624" opacity="0.8082898314659491" transform="matrix(0.901578509788263,-0.4326155229392202,0.4326155229392202,0.901578509788263,144.5325392510565,-0.45803596201125174)" fill="none" stroke="#2c2891"></use><use xlink:href="#bbburst-shape-13" width="27.350631048599748" opacity="0.6083011275588492" transform="matrix(0.9880224969533399,0.1543099008945551,-0.1543099008945551,0.9880224969533399,362.4721395532764,-151.32497777987984)" fill="none" stroke="#ffa6d5" filter="url(#bbburst-blur-1)"></use><use xlink:href="#bbburst-shape-11" width="27.778513458716734" opacity="0.2983182616068236" transform="matrix(1.057190941201808,-0.6669687502730813,0.6669687502730813,1.057190941201808,-194.02531683025893,32.499640006174786)" fill="none" stroke="#ffa6d5" filter="url(#bbburst-blur-3)"></use><use xlink:href="#bbburst-shape-5" width="37.42425121287841" opacity="0.12074279924570941" transform="matrix(1.2241918307534285,-0.25269420554608857,0.25269420554608857,1.2241918307534285,436.5649178403343,276.68014768850236)" fill="#00a19d" filter="url(#bbburst-blur-3)"></use><use xlink:href="#bbburst-shape-10" width="32.54111670715828" opacity="0.1796249203407947" transform="matrix(1.1264418906134697,0.5418751397426826,-0.5418751397426826,1.1264418906134697,656.0783779210429,-424.03203394515384)" fill="none" stroke="#2c2891" filter="url(#bbburst-blur-3)"></use><use xlink:href="#bbburst-shape-5" width="40.154891459425485" opacity="0.09881988750148529" transform="matrix(1.441577326271794,0.9921465679923837,-0.9921465679923837,1.441577326271794,405.28261510367736,-378.07996828456055)" fill="#00a19d" filter="url(#bbburst-blur-4)"></use><use xlink:href="#bbburst-shape-10" width="54.827031885911964" opacity="-0.0810834023375111" transform="matrix(1.2416326158983295,1.2332268433412692,-1.2332268433412692,1.2416326158983295,515.5545379125535,213.83818892117245)" fill="none" stroke="#2c2891" filter="url(#bbburst-blur-4)"></use><use xlink:href="#bbburst-shape-13" width="28.319690174727224" opacity="0.2842651201238252" transform="matrix(1.1067460109042868,-0.5810449787645088,0.5810449787645088,1.1067460109042868,263.34602182476505,267.7180079358289)" fill="none" stroke="#ffa6d5" filter="url(#bbburst-blur-3)"></use><use xlink:href="#bbburst-shape-9" width="30.4835330223785" opacity="0.06642186538307526" transform="matrix(1.746755826355231,0.10650860572767733,-0.10650860572767733,1.746755826355231,778.9654094236241,-89.14289786692837)" fill="none" stroke="#2c2891" filter="url(#bbburst-blur-4)"></use><use xlink:href="#bbburst-shape-10" width="27.63953997488235" opacity="0.5669290820131884" transform="matrix(0.834156282662936,-0.5515281462391126,0.5515281462391126,0.834156282662936,-16.087192969228795,138.31826736755522)" fill="none" stroke="#00a19d" filter="url(#bbburst-blur-1)"></use><use xlink:href="#bbburst-shape-10" width="36.49069822315126" opacity="0.06122282434264559" transform="matrix(1.7496612456570524,0.03443146011733081,-0.03443146011733081,1.7496612456570524,150.1940681443592,52.777126368621225)" fill="none" stroke="#2c2891" filter="url(#bbburst-blur-4)"></use><use xlink:href="#bbburst-shape-9" width="25.32891702651533" opacity="0.6574448003095584" transform="matrix(0.9827788289951699,0.18478574966398958,-0.18478574966398958,0.9827788289951699,577.9605157181005,105.3705946822032)" fill="none" stroke="#ffa6d5" filter="url(#bbburst-blur-1)"></use><use xlink:href="#bbburst-shape-13" width="13.54713977560251" opacity="0.9544735356367725" transform="matrix(0.9871249303224835,-0.15995115484369601,0.15995115484369601,0.9871249303224835,349.75855411045416,4.646563132558356)" fill="none" stroke="#2c2891"></use><use xlink:href="#bbburst-shape-11" width="36.94319426238289" opacity="0.059600358448648416" transform="matrix(1.2681380886936002,-1.20595430593557,1.20595430593557,1.2681380886936002,144.67925390489785,255.0784064297701)" fill="none" stroke="#ffbd9b" filter="url(#bbburst-blur-4)"></use><use xlink:href="#bbburst-shape-13" width="15.531840163558096" opacity="0.8971446763524593" transform="matrix(0.9438165290708849,-0.3304699070302582,0.3304699070302582,0.9438165290708849,227.85833644029782,-7.792495788015344)" fill="none" stroke="#ff5c58"></use><use xlink:href="#bbburst-shape-1" width="31.515908365687693" opacity="0.44540775259887355" transform="matrix(0.9324654750053525,-0.36125910081690993,0.36125910081690993,0.9324654750053525,189.07343929588214,276.8878118587804)" fill="#00a19d" filter="url(#bbburst-blur-2)"></use><use xlink:href="#bbburst-shape-13" width="13.162452581026923" opacity="0.8078355457867473" transform="matrix(0.9832041800889666,-0.18250901417623966,0.18250901417623966,0.9832041800889666,275.22246463396004,-65.73765896594574)" fill="none" stroke="#2c2891"></use><use xlink:href="#bbburst-shape-13" width="22.31371480759615" opacity="0.6325047584829071" transform="matrix(0.9422426470138072,-0.3349310289423986,0.3349310289423986,0.9422426470138072,104.23176115457582,-39.954933410392584)" fill="none" stroke="#2c2891" filter="url(#bbburst-blur-1)"></use><use xlink:href="#bbburst-shape-11" width="13.293914317759217" opacity="0.8532268793435185" transform="matrix(0.9857019357035475,-0.16849834999275112,0.16849834999275112,0.9857019357035475,316.78257097019537,-58.72839457892053)" fill="none" stroke="#00a19d"></use><use xlink:href="#bbburst-shape-11" width="26.790328838560356" opacity="0.6146429406973486" transform="matrix(0.9999140043660011,0.013114262188499077,-0.013114262188499077,0.9999140043660011,469.66499871854836,154.48791204013366)" fill="none" stroke="#ffbd9b" filter="url(#bbburst-blur-1)"></use><use xlink:href="#bbburst-shape-9" width="14.749163912559196" opacity="0.8841306018424647" transform="matrix(0.803357340585544,-0.5954972571954654,0.5954972571954654,0.803357340585544,111.70890212745229,110.77419895142265)" fill="none" stroke="#2c2891"></use><use xlink:href="#bbburst-shape-11" width="20.65559605084127" opacity="0.7234355978414904" transform="matrix(0.9408963932729744,0.338694518889675,-0.338694518889675,0.9408963932729744,474.4799412757901,133.2502183578573)" fill="none" stroke="#2c2891" filter="url(#bbburst-blur-1)"></use><use xlink:href="#bbburst-shape-11" width="33.143600749001166" opacity="0.05942796108105064" transform="matrix(1.6960418056561906,-0.4312101500040189,0.4312101500040189,1.6960418056561906,-30.628299970609532,-627.4022274501117)" fill="none" stroke="#00a19d" filter="url(#bbburst-blur-4)"></use><use xlink:href="#bbburst-shape-13" width="30.52157717495106" opacity="0.5051398353503469" transform="matrix(0.9884776254038584,0.15136705082662252,-0.15136705082662252,0.9884776254038584,597.8561593742197,164.67356708975086)" fill="none" stroke="#2c2891" filter="url(#bbburst-blur-2)"></use><use xlink:href="#bbburst-shape-10" width="30.05081310628969" opacity="0.41633535681471234" transform="matrix(0.9633501782279379,0.26824696476978116,-0.26824696476978116,0.9633501782279379,750.1939623330708,-41.76600834043228)" fill="none" stroke="#ffa6d5" filter="url(#bbburst-blur-2)"></use><use xlink:href="#bbburst-shape-5" width="32.99329806516554" opacity="0.2888853023490785" transform="matrix(1.2446209220935325,0.11583937278423391,-0.11583937278423391,1.2446209220935325,711.2580593463992,-244.38583555979486)" fill="#00a19d" filter="url(#bbburst-blur-3)"></use><use xlink:href="#bbburst-shape-11" width="27.054231137187724" opacity="0.4633826547169094" transform="matrix(0.7895796314822782,0.6136481121524858,-0.6136481121524858,0.7895796314822782,728.5130005412037,298.2249645230594)" fill="none" stroke="#ffa6d5" filter="url(#bbburst-blur-2)"></use><use xlink:href="#bbburst-shape-5" width="43.18525754511683" opacity="-0.08307371708095146" transform="matrix(1.297893887611111,-1.1738702894705686,1.1738702894705686,1.297893887611111,252.9013444308087,244.87810997579106)" fill="#ffbd9b" filter="url(#bbburst-blur-4)"></use><use xlink:href="#bbburst-shape-13" width="23.6761936842133" opacity="0.5673793205265196" transform="matrix(0.932806443609302,0.36037777229036483,-0.36037777229036483,0.932806443609302,714.2778050209583,-48.64673144761099)" fill="none" stroke="#00a19d" filter="url(#bbburst-blur-1)"></use><use xlink:href="#bbburst-shape-11" width="38.275110366709946" opacity="0.18052270695298744" transform="matrix(0.9978992556248062,0.752792850406709,-0.752792850406709,0.9978992556248062,964.2598264958774,223.71760828290837)" fill="none" stroke="#ffbd9b" filter="url(#bbburst-blur-3)"></use><use xlink:href="#bbburst-shape-1" width="17.807257691145356" opacity="0.74775770122001" transform="matrix(0.8314187277435263,-0.5556463795952746,0.5556463795952746,0.8314187277435263,283.24811026109126,84.17447827466941)" fill="#ff5c58" filter="url(#bbburst-blur-1)"></use><use xlink:href="#bbburst-shape-11" width="29.170043087460673" opacity="0.32680636341162983" transform="matrix(1.1747504994259574,0.4271548479163775,-0.4271548479163775,1.1747504994259574,626.5101567195248,-370.67563854430847)" fill="none" stroke="#00a19d" filter="url(#bbburst-blur-3)"></use><use xlink:href="#bbburst-shape-1" width="28.64399615155916" opacity="0.08272345386483682" transform="matrix(1.6196817400398862,-0.6626696469443627,0.6626696469443627,1.6196817400398862,472.29429259662305,-439.3132547046192)" fill="#ffa6d5" filter="url(#bbburst-blur-4)"></use><use xlink:href="#bbburst-shape-5" width="26.593353203060904" opacity="0.46537276504443115" transform="matrix(0.9504257134296951,-0.31095170565805746,0.31095170565805746,0.9504257134296951,134.81279888012622,227.56329204252586)" fill="#2c2891" filter="url(#bbburst-blur-2)"></use><use xlink:href="#bbburst-shape-9" width="23.677897917880717" opacity="0.7499797985798415" transform="matrix(0.9757214153635663,0.2190153410172879,-0.2190153410172879,0.9757214153635663,365.09721844665535,-11.448910305564652)" fill="none" stroke="#ffa6d5" filter="url(#bbburst-blur-1)"></use><use xlink:href="#bbburst-shape-10" width="19.78219380660766" opacity="0.6330981818473751" transform="matrix(0.9979306887361222,-0.06429883730401834,0.06429883730401834,0.9979306887361222,199.65222965776192,-9.253714639702821)" fill="none" stroke="#2c2891" filter="url(#bbburst-blur-1)"></use><use xlink:href="#bbburst-shape-1" width="28.358845812230886" opacity="0.1465900001852808" transform="matrix(0.9552202926241178,-0.8062593829277863,0.8062593829277863,0.9552202926241178,-62.27628765404364,392.0656082031778)" fill="#2c2891" filter="url(#bbburst-blur-3)"></use><use xlink:href="#bbburst-shape-13" width="46.06591227979531" opacity="0.33924167996193033" transform="matrix(0.9752233683129002,-0.22122247149971289,0.22122247149971289,0.9752233683129002,452.8754901142858,-233.13223409111046)" fill="none" stroke="#ffbd9b" filter="url(#bbburst-blur-2)"></use><use xlink:href="#bbburst-shape-5" width="37.78336606700066" opacity="0.3705095241053894" transform="matrix(0.9742879458602272,0.22530645474876912,-0.22530645474876912,0.9742879458602272,711.1405025051158,157.41698780606697)" fill="#2c2891" filter="url(#bbburst-blur-2)"></use><use xlink:href="#bbburst-shape-11" width="28.804684775544303" opacity="0.5994782982925646" transform="matrix(0.8456313049318094,0.533767455095686,-0.533767455095686,0.8456313049318094,552.7261413164531,227.24865565984396)" fill="none" stroke="#ffa6d5" filter="url(#bbburst-blur-1)"></use><use xlink:href="#bbburst-shape-10" width="23.13206814919756" opacity="0.6180301456063853" transform="matrix(0.9568989122146021,-0.2904211972334513,0.2904211972334513,0.9568989122146021,174.104722584239,161.35207116138992)" fill="none" stroke="#ffbd9b" filter="url(#bbburst-blur-1)"></use><use xlink:href="#bbburst-shape-13" width="18.705436670737" opacity="0.8008273652472683" transform="matrix(0.783127807049752,-0.6218607865313959,0.6218607865313959,0.783127807049752,83.42436515096892,158.6862803720673)" fill="none" stroke="#ffa6d5"></use><use xlink:href="#bbburst-shape-1" width="40.2163514360641" opacity="0.36106002443450524" transform="matrix(0.8667635394782368,-0.4987193265065623,0.4987193265065623,0.8667635394782368,-28.97771099639226,-130.76785664219537)" fill="#ffa6d5" filter="url(#bbburst-blur-2)"></use><use xlink:href="#bbburst-shape-1" width="31.526514048913647" opacity="0.4832741458549309" transform="matrix(0.7176868672921055,-0.6963659673737967,0.6963659673737967,0.7176868672921055,-105.12304067327378,36.078999665452386)" fill="#00a19d" filter="url(#bbburst-blur-2)"></use><use xlink:href="#bbburst-shape-11" width="19.628112657343983" opacity="0.5510291536759635" transform="matrix(0.8001477192202087,-0.599802990511633,0.599802990511633,0.8001477192202087,252.2015530236385,-89.8556216582885)" fill="none" stroke="#ffa6d5" filter="url(#bbburst-blur-2)"></use><use xlink:href="#bbburst-shape-5" width="18.325861626408066" opacity="0.7791030972194373" transform="matrix(0.934550861509903,0.3558295761331514,-0.3558295761331514,0.934550861509903,598.248686145199,-52.73390856291138)" fill="#ff5c58"></use><use xlink:href="#bbburst-shape-13" width="36.18299834069153" opacity="0.3000724810953228" transform="matrix(0.9614098963899063,-0.7988685818853748,0.7988685818853748,0.9614098963899063,-224.6694325293892,-98.23879903439774)" fill="none" stroke="#ff5c58" filter="url(#bbburst-blur-3)"></use><use xlink:href="#bbburst-shape-11" width="23.716079126868767" opacity="0.4813325345951287" transform="matrix(0.955629936233022,-0.29456989828438085,0.29456989828438085,0.955629936233022,326.8155601657347,-205.6175380034096)" fill="none" stroke="#ffa6d5" filter="url(#bbburst-blur-2)"></use><use xlink:href="#bbburst-shape-9" width="17.404986783059833" opacity="0.8213522344259332" transform="matrix(0.7782443397532527,0.627961581342381,-0.627961581342381,0.7782443397532527,664.1774423799145,161.0885727466685)" fill="none" stroke="#00a19d"></use><use xlink:href="#bbburst-shape-9" width="33.116042835841355" opacity="0.18597678006915253" transform="matrix(1.1607992962470468,-0.4637294403338665,0.4637294403338665,1.1607992962470468,238.40988588294476,306.85070812410504)" fill="none" stroke="#ffa6d5" filter="url(#bbburst-blur-3)"></use><use xlink:href="#bbburst-shape-9" width="25.79976254381648" opacity="0.41685375109505074" transform="matrix(0.9813891254789757,0.19202964456461233,-0.19202964456461233,0.9813891254789757,674.3883672135021,-152.2919668195379)" fill="none" stroke="#00a19d" filter="url(#bbburst-blur-2)"></use><use xlink:href="#bbburst-shape-13" width="36.23172060788954" opacity="0.5683848882244824" transform="matrix(0.8769919757179566,0.48050502029252,-0.48050502029252,0.8769919757179566,594.750268746564,233.84832804823628)" fill="none" stroke="#2c2891" filter="url(#bbburst-blur-1)"></use><use xlink:href="#bbburst-shape-9" width="42.415746190660826" opacity="-0.06960818573715488" transform="matrix(1.7437769450453962,-0.1474515714671976,0.1474515714671976,1.7437769450453962,643.9937219653245,-635.5781031362928)" fill="none" stroke="#00a19d" filter="url(#bbburst-blur-4)"></use><use xlink:href="#bbburst-shape-9" width="28.685067517539366" opacity="0.15181210796810296" transform="matrix(1.16602895830453,-0.45041810398256954,0.45041810398256954,1.16602895830453,-165.98135247348077,37.392232928686326)" fill="none" stroke="#00a19d" filter="url(#bbburst-blur-3)"></use><use xlink:href="#bbburst-shape-9" width="30.170881078453252" opacity="0.1881287607926142" transform="matrix(1.1435653481466044,0.5047358660907064,-0.5047358660907064,1.1435653481466044,222.46268284763966,-112.45078060936555)" fill="none" stroke="#00a19d" filter="url(#bbburst-blur-3)"></use><use xlink:href="#bbburst-shape-5" width="37.552054254912036" opacity="0.38615367484789775" transform="matrix(0.9119247843902071,0.4103573901063246,-0.4103573901063246,0.9119247843902071,573.3031204337638,302.5028489783986)" fill="#ffbd9b" filter="url(#bbburst-blur-2)"></use><use xlink:href="#bbburst-shape-10" width="26.51099867498659" opacity="0.6786999426128095" transform="matrix(0.9314004919523372,0.36399604886721526,-0.36399604886721526,0.9314004919523372,647.8281159078307,-65.57357203919184)" fill="none" stroke="#ffbd9b" filter="url(#bbburst-blur-1)"></use><use xlink:href="#bbburst-shape-13" width="19.498898210880796" opacity="0.7793988674437261" transform="matrix(0.7110215499512368,-0.7031702180161934,0.7031702180161934,0.7110215499512368,199.87923161659063,168.23615388392545)" fill="none" stroke="#ffa6d5"></use><use xlink:href="#bbburst-shape-1" width="38.511704936074295" opacity="0.3003877426196886" transform="matrix(1.00480744891068,-0.7435468987317553,0.7435468987317553,1.00480744891068,-61.79681580772322,291.8560458401911)" fill="#ffbd9b" filter="url(#bbburst-blur-3)"></use><use xlink:href="#bbburst-shape-10" width="25.878323521792694" opacity="0.7047556364085699" transform="matrix(0.7080115997761077,-0.7062008033006453,0.7062008033006453,0.7080115997761077,8.416827101318177,38.392094072635814)" fill="none" stroke="#ff5c58" filter="url(#bbburst-blur-1)"></use><use xlink:href="#bbburst-shape-9" width="22.020573774139784" opacity="0.6888341596118546" transform="matrix(0.9999539596495237,-0.009595758502526263,0.009595758502526263,0.9999539596495237,522.8029435994998,-25.689460375029853)" fill="none" stroke="#2c2891" filter="url(#bbburst-blur-1)"></use><use xlink:href="#bbburst-shape-10" width="15.347519925860922" opacity="0.8342246030748379" transform="matrix(0.9965307399708236,0.08322550266115941,-0.08322550266115941,0.9965307399708236,500.1608415704729,-2.7297993739090316)" fill="none" stroke="#00a19d"></use><use xlink:href="#bbburst-shape-13" width="38.54611786828279" opacity="0.24206901237891487" transform="matrix(1.2324062318365943,-0.2089853576936112,0.2089853576936112,1.2324062318365943,247.9571323050859,249.1928548116132)" fill="none" stroke="#ffbd9b" filter="url(#bbburst-blur-3)"></use><use xlink:href="#bbburst-shape-13" width="30.151895269652492" opacity="0.5471167491351483" transform="matrix(0.7231059609886291,-0.6907371201714232,0.6907371201714232,0.7231059609886291,-47.15555598788197,247.4504296084432)" fill="none" stroke="#ffa6d5" filter="url(#bbburst-blur-2)"></use><use xlink:href="#bbburst-shape-11" width="13.197228126336878" opacity="0.8815459894976104" transform="matrix(0.9993795663266509,-0.035220482801278104,0.035220482801278104,0.9993795663266509,429.26456507590854,18.912274113195906)" fill="none" stroke="#2c2891"></use><use xlink:href="#bbburst-shape-9" width="34.927060333127436" opacity="0.20088289899569534" transform="matrix(1.178081898010099,0.4178792188909642,-0.4178792188909642,1.178081898010099,899.1102502014342,-150.25436949765083)" fill="none" stroke="#2c2891" filter="url(#bbburst-blur-3)"></use><use xlink:href="#bbburst-shape-10" width="13.722179355665524" opacity="0.9190666143799021" transform="matrix(0.9874365872063323,0.15801577847262974,-0.15801577847262974,0.9874365872063323,466.07852303591744,-31.1778989726767)" fill="none" stroke="#00a19d"></use><use xlink:href="#bbburst-shape-11" width="53.06563277841843" opacity="-0.0783917729865038" transform="matrix(1.372737552933474,-1.0853992863302508,1.0853992863302508,1.372737552933474,-421.05143489306727,-457.6636234690031)" fill="none" stroke="#2c2891" filter="url(#bbburst-blur-4)"></use><use xlink:href="#bbburst-shape-13" width="14.547305929781302" opacity="0.7273181595021363" transform="matrix(0.9453543000677851,0.32604485480275286,-0.32604485480275286,0.9453543000677851,575.046767557486,130.86089018450718)" fill="none" stroke="#ff5c58" filter="url(#bbburst-blur-1)"></use><use xlink:href="#bbburst-shape-13" width="26.72556218636666" opacity="0.5395299665835378" transform="matrix(0.9943201909374911,0.10643006104494739,-0.10643006104494739,0.9943201909374911,275.8566861787943,-138.4209759485841)" fill="none" stroke="#2c2891" filter="url(#bbburst-blur-2)"></use><use xlink:href="#bbburst-shape-13" width="39.56379401446769" opacity="0.3853282052258199" transform="matrix(0.9658084548038322,0.25925668483075615,-0.25925668483075615,0.9658084548038322,275.0916149519976,189.14777531783875)" fill="none" stroke="#ffa6d5" filter="url(#bbburst-blur-2)"></use><use xlink:href="#bbburst-shape-13" width="17.236078021614325" opacity="0.8618842107670548" transform="matrix(0.8995352873646837,0.4368481049354981,-0.4368481049354981,0.8995352873646837,504.9845824911938,32.11017274675277)" fill="none" stroke="#ff5c58"></use><use xlink:href="#bbburst-shape-13" width="32.75266330288597" opacity="0.4468623710453461" transform="matrix(0.9996156083404082,0.027724277488072598,-0.027724277488072598,0.9996156083404082,279.992142864919,-221.1955995718705)" fill="none" stroke="#2c2891" filter="url(#bbburst-blur-2)"></use><use xlink:href="#bbburst-shape-9" width="22.426949409515977" opacity="0.6287063312384034" transform="matrix(0.9686808591714523,0.24830906764525743,-0.24830906764525743,0.9686808591714523,511.73249632697565,-155.86208811803917)" fill="none" stroke="#2c2891" filter="url(#bbburst-blur-1)"></use><use xlink:href="#bbburst-shape-5" width="16.13761513302491" opacity="0.7839149265555984" transform="matrix(0.9383607797269634,-0.34565741286743046,0.34565741286743046,0.9383607797269634,342.4684996585936,-13.272340684593132)" fill="#00a19d"></use><use xlink:href="#bbburst-shape-9" width="41.225420419189604" opacity="0.2408653554020792" transform="matrix(1.1081288526949393,-0.5784033591059075,0.5784033591059075,1.1081288526949393,-155.29987667123345,130.0266560685851)" fill="none" stroke="#ffa6d5" filter="url(#bbburst-blur-3)"></use><use xlink:href="#bbburst-shape-11" width="44.53167250230838" opacity="0.3148345759209663" transform="matrix(1.2458970543809669,-0.10119550328364348,0.10119550328364348,1.2458970543809669,518.0891956245773,148.80414761726536)" fill="none" stroke="#ffbd9b" filter="url(#bbburst-blur-3)"></use><use xlink:href="#bbburst-shape-10" width="43.30125916356001" opacity="0.2603638246413754" transform="matrix(1.1314025082651957,-0.5314398971579231,0.5314398971579231,1.1314025082651957,-4.455042174105444,-328.7401555842524)" fill="none" stroke="#2c2891" filter="url(#bbburst-blur-3)"></use><use xlink:href="#bbburst-shape-1" width="34.043256793939634" opacity="0.19788180796780686" transform="matrix(1.2258105469288703,0.24472127622653445,-0.24472127622653445,1.2258105469288703,836.6392819909856,-63.5208185276461)" fill="#00a19d" filter="url(#bbburst-blur-3)"></use><use xlink:href="#bbburst-shape-9" width="37.50287619623703" opacity="0.1036971342451608" transform="matrix(1.4052790967573392,-1.0429240913014124,1.0429240913014124,1.4052790967573392,155.21624051459048,-493.73666548691494)" fill="none" stroke="#ffa6d5" filter="url(#bbburst-blur-4)"></use><use xlink:href="#bbburst-shape-5" width="12.451351367909643" opacity="0.792865008160393" transform="matrix(0.9723753848342581,-0.23342260166579515,0.23342260166579515,0.9723753848342581,362.62341857580384,82.06250161023661)" fill="#00a19d"></use><use xlink:href="#bbburst-shape-13" width="20.763578774817596" opacity="0.7915530756386225" transform="matrix(0.8465353557789868,0.5323325008076667,-0.5323325008076667,0.8465353557789868,515.1192381842909,85.40861631364174)" fill="none" stroke="#2c2891"></use><use xlink:href="#bbburst-shape-9" width="37.46939692307703" opacity="0.05427068233405863" transform="matrix(1.2377414435748877,-1.2371322155926396,1.2371322155926396,1.2377414435748877,-474.82717974013525,160.2411248752063)" fill="none" stroke="#2c2891" filter="url(#bbburst-blur-4)"></use><use xlink:href="#bbburst-shape-11" width="28.856867677684825" opacity="0.37171456650546686" transform="matrix(0.909603732956504,0.415476893450879,-0.415476893450879,0.909603732956504,272.26316826216214,-1.765884631447193)" fill="none" stroke="#ffa6d5" filter="url(#bbburst-blur-2)"></use><use xlink:href="#bbburst-shape-13" width="18.144408578006406" opacity="0.6871958193775498" transform="matrix(0.923615604535576,0.3833199904236438,-0.3833199904236438,0.923615604535576,409.6034900387622,65.74870069029879)" fill="none" stroke="#2c2891" filter="url(#bbburst-blur-1)"></use><use xlink:href="#bbburst-shape-13" width="31.70398934168134" opacity="0.21049252193396017" transform="matrix(1.208861583304878,-0.31804665131018756,0.31804665131018756,1.208861583304878,588.0674978804847,41.357633721021045)" fill="none" stroke="#ffa6d5" filter="url(#bbburst-blur-3)"></use><use xlink:href="#bbburst-shape-13" width="21.27832248258859" opacity="0.7349274641772175" transform="matrix(0.7353505100762789,-0.6776869685411963,0.6776869685411963,0.7353505100762789,115.93720112901752,-6.100977676896775)" fill="none" stroke="#00a19d" filter="url(#bbburst-blur-1)"></use><use xlink:href="#bbburst-shape-9" width="25.546581927346512" opacity="0.562353238407685" transform="matrix(0.9596261063764142,-0.2812787513496939,0.2812787513496939,0.9596261063764142,471.9785563375058,27.132049410668742)" fill="none" stroke="#ffa6d5" filter="url(#bbburst-blur-1)"></use><use xlink:href="#bbburst-shape-13" width="23.772710369749607" opacity="0.5237346132355003" transform="matrix(0.9904786681693207,-0.13766629181295156,0.13766629181295156,0.9904786681693207,529.0115370109688,92.47999689232091)" fill="none" stroke="#2c2891" filter="url(#bbburst-blur-2)"></use><use xlink:href="#bbburst-shape-9" width="38.024070220723694" opacity="0.38977624493198315" transform="matrix(0.9998125945208259,-0.019359128015861864,0.019359128015861864,0.9998125945208259,644.8706274755943,40.484659574564716)" fill="none" stroke="#ff5c58" filter="url(#bbburst-blur-2)"></use><use xlink:href="#bbburst-shape-1" width="33.294635929828004" opacity="0.545898993588597" transform="matrix(0.9981859730689924,-0.060206006081693075,0.060206006081693075,0.9981859730689924,330.14071852193837,-200.48314435417439)" fill="#ffa6d5" filter="url(#bbburst-blur-2)"></use><use xlink:href="#bbburst-shape-10" width="39.50672698525787" opacity="0.17289766181993949" transform="matrix(1.0656204465509118,-0.6534164551743669,0.6534164551743669,1.0656204465509118,387.5785882404617,-269.5298888768905)" fill="none" stroke="#ffbd9b" filter="url(#bbburst-blur-3)"></use><use xlink:href="#bbburst-shape-13" width="38.3841934559165" opacity="0.3621694486074257" transform="matrix(0.8994767603409733,0.4369686002523604,-0.4369686002523604,0.8994767603409733,520.4346511747402,-252.7942810434763)" fill="none" stroke="#ff5c58" filter="url(#bbburst-blur-2)"></use><use xlink:href="#bbburst-shape-10" width="12.300933304078157" opacity="0.9582020729994086" transform="matrix(0.9972345600126069,-0.0743184520591105,0.0743184520591105,0.9972345600126069,346.20141057808445,-4.095134632269719)" fill="none" stroke="#00a19d"></use><use xlink:href="#bbburst-shape-11" width="19.421468786734017" opacity="0.7062787854869708" transform="matrix(0.8403835983999992,-0.5419920733186684,0.5419920733186684,0.8403835983999992,177.96095400562447,201.03863853091565)" fill="none" stroke="#ffa6d5" filter="url(#bbburst-blur-1)"></use></svg>